PathFileType	4	(X/Y/Z)	C:/Users/opensim2020/Desktop/walking_exp_matlab/subject06_walking12_static.trc	
DataRate	CameraRate	NumFrames	NumMarkers	Units	OrigDataRate	OrigDataStartFrame	OrigNumFrames	
100.00	100.00	8	48	mm	100.00	318	363	
Frame#	Time	LFHD			RFHD			LBHD			RBHD			C7			T10			CLAV			STRN			RBAK			LSHO			LUPA			LELB			LFRM			LWRA			LWRB			LFIN			RSHO			RUPA			RELB			RFRM			RWRA			RWRB			RFIN			LASI			RASI			LPSI			RPSI			LTHI			LKNE			LTIB			LANK			LHEE			LTOE			RTHI			RKNE			RTIB			RANK			RHEE			RTOE			*39			*40			*41			*42			*43			*44			*45			*46			*47			
		X1	Y1	Z1	X2	Y2	Z2	X3	Y3	Z3	X4	Y4	Z4	X5	Y5	Z5	X6	Y6	Z6	X7	Y7	Z7	X8	Y8	Z8	X9	Y9	Z9	X10	Y10	Z10	X11	Y11	Z11	X12	Y12	Z12	X13	Y13	Z13	X14	Y14	Z14	X15	Y15	Z15	X16	Y16	Z16	X17	Y17	Z17	X18	Y18	Z18	X19	Y19	Z19	X20	Y20	Z20	X21	Y21	Z21	X22	Y22	Z22	X23	Y23	Z23	X24	Y24	Z24	X25	Y25	Z25	X26	Y26	Z26	X27	Y27	Z27	X28	Y28	Z28	X29	Y29	Z29	X30	Y30	Z30	X31	Y31	Z31	X32	Y32	Z32	X33	Y33	Z33	X34	Y34	Z34	X35	Y35	Z35	X36	Y36	Z36	X37	Y37	Z37	X38	Y38	Z38	X39	Y39	Z39	X40	Y40	Z40	X41	Y41	Z41	X42	Y42	Z42	X43	Y43	Z43	X44	Y44	Z44	X45	Y45	Z45	X46	Y46	Z46	X47	Y47	Z47	X48	Y48	Z48	

318	3.170	388.68307	-646.17108	1678.08130	404.82181	-515.75256	1662.77478	520.47162	-664.26776	1620.91370	534.41473	-535.48413	1611.83984	524.93701	-607.31189	1460.57349	554.69208	-597.42627	1133.46228	413.50391	-599.13287	1387.09753	367.95566	-604.33923	1214.01245	599.29321	-527.38806	1289.66138	459.54443	-763.90601	1418.76758	440.95435	-841.75873	1219.12793	428.86499	-859.87885	1108.43433	373.37515	-890.51910	970.33539	287.97604	-855.00269	870.88397	345.41562	-893.44495	854.26227	285.05026	-898.51764	786.11658	469.84064	-442.84613	1417.68860	475.42075	-345.72656	1222.56152	439.06052	-316.82755	1109.65063	410.22171	-280.78763	997.21503	332.47885	-281.53952	862.50439	391.05075	-248.90263	863.35779	346.34546	-229.15233	794.51733	377.83594	-698.76202	973.59875	381.31345	-478.66458	980.09332	533.81213	-674.10461	1005.32764	530.20587	-507.85312	1011.08862	480.95877	-777.87134	666.72607	500.42688	-768.32373	503.55838	544.92926	-793.78351	252.89998	543.42743	-771.35406	75.17892	582.93695	-729.18445	56.36758	395.21463	-770.42932	39.10688	477.12195	-411.15564	650.25836	492.52200	-427.75238	525.21960	561.66095	-406.40054	269.49933	575.01453	-436.16708	78.62747	612.93036	-479.36581	51.23916	418.50809	-431.81290	35.84019	496.37476	-598.62939	1712.98596																								 
319	3.180	388.55765	-646.00995	1678.03931	404.75278	-515.60095	1662.76819	520.22913	-664.07965	1620.87244	534.31927	-535.46863	1611.79578	524.87250	-607.25781	1460.56934	554.63068	-597.32098	1133.42444	413.53650	-599.01984	1386.99475	367.95132	-604.16437	1213.94775	599.29449	-527.35632	1289.69702	459.39713	-763.76904	1418.69983	440.82211	-841.64325	1219.05310	428.76846	-859.79852	1108.35010	373.28250	-890.45349	970.27875	287.91226	-854.88550	870.81061	345.31845	-893.34723	854.19684	284.94296	-898.39685	786.05463	469.85364	-442.69977	1417.72058	475.49799	-345.58893	1222.53699	439.22519	-317.00430	1109.48218	410.34912	-280.81601	997.11255	332.54782	-281.36273	862.55389	391.12454	-248.79472	863.34943	346.31122	-229.03580	794.65674	377.82037	-698.69269	973.62750	381.29898	-478.56335	980.11133	533.74915	-674.03638	1005.39429	530.16754	-507.74231	1011.07233	480.91180	-777.79663	666.73761	500.38168	-768.26465	503.54852	544.89514	-793.77106	252.88750	543.43475	-771.35907	75.22064	582.86072	-729.16681	56.36971	395.23376	-770.43677	39.16564	477.04752	-411.08124	650.27063	492.40454	-427.43924	525.28320	561.60150	-406.33682	269.47720	575.01367	-436.18970	78.59084	612.92877	-479.36014	51.23899	418.50027	-431.88925	35.89147	496.17752	-598.47839	1712.99438																								 
320	3.190	388.43936	-645.86597	1678.04370	404.74347	-515.46820	1662.76599	520.26703	-664.20453	1620.84717	534.17084	-535.49231	1611.78906	524.73804	-607.08362	1460.56763	554.67584	-597.28729	1133.46509	413.51932	-598.89813	1386.90979	367.95792	-604.04132	1213.90039	599.25427	-527.28491	1289.72131	459.27554	-763.65613	1418.63550	440.69595	-841.54584	1218.99817	428.66556	-859.66766	1108.30420	373.20560	-890.37634	970.23877	287.80899	-854.76593	870.76605	345.20578	-893.22418	854.13654	284.84521	-898.27002	786.00385	469.84543	-442.56961	1417.71252	475.59521	-345.44589	1222.56677	439.33777	-316.83099	1109.49463	410.41690	-280.60342	997.10132	332.62332	-281.18085	862.58264	391.18903	-248.62682	863.36371	346.36636	-228.89185	794.58734	377.80499	-698.57202	973.63788	381.27661	-478.48203	980.11066	533.70209	-673.92657	1005.39319	530.15320	-507.67496	1011.08099	480.86331	-777.75000	666.74408	500.29037	-768.20490	503.55188	544.83435	-793.78369	252.94450	543.40497	-771.37659	75.22166	582.83472	-729.18109	56.36409	395.23599	-770.40350	39.18630	476.98767	-411.06854	650.23431	492.37802	-427.35934	525.28894	561.57813	-406.32208	269.47134	575.00073	-436.15799	78.58817	612.93225	-479.38519	51.26952	418.49435	-431.83344	35.87399	496.17099	-598.46643	1712.93665																								 
321	3.200	388.33554	-645.75055	1678.03796	404.71246	-515.31891	1662.74622	520.12128	-664.10187	1620.81738	534.10535	-535.43469	1611.78992	524.62848	-607.00879	1460.56799	554.55164	-597.16846	1133.45569	413.49936	-598.77399	1386.83105	367.96429	-603.88623	1213.84216	599.22650	-527.22650	1289.70459	459.14215	-763.54498	1418.57568	440.58298	-841.45105	1218.94128	428.57184	-859.61475	1108.23328	373.11142	-890.26178	970.18555	287.73022	-854.67804	870.68835	345.11646	-893.11243	854.05725	284.70602	-898.12555	785.92523	469.84869	-442.44342	1417.71582	475.66058	-345.29770	1222.59387	439.41550	-316.64938	1109.51379	410.47772	-280.31357	997.21320	332.68396	-280.95505	862.63544	391.22079	-248.42317	863.43616	346.22586	-228.86420	794.68207	377.76254	-698.42542	973.64508	381.25452	-478.39740	980.10931	533.67462	-673.82800	1005.41681	530.12024	-507.58182	1011.07391	480.81818	-777.72607	666.76917	500.22729	-768.15826	503.56174	544.74640	-793.76831	252.91133	543.37787	-771.33081	75.22330	582.77350	-729.19250	56.36624	395.21060	-770.45557	39.15475	476.96823	-411.03326	650.22394	492.32446	-427.35620	525.25647	561.55847	-406.29797	269.47128	574.99481	-436.17313	78.57613	612.91656	-479.39093	51.25157	418.49341	-431.88577	35.86941	496.01682	-598.30182	1712.94495																								 
322	3.210	388.21863	-645.62347	1678.01550	404.61697	-515.22864	1662.75928	519.88428	-663.87476	1620.81787	534.00647	-535.34265	1611.75549	524.55939	-606.93378	1460.57422	554.52307	-597.09192	1133.45471	413.47791	-598.62128	1386.75928	367.95914	-603.71375	1213.80554	599.17047	-527.08984	1289.74817	459.04404	-763.41187	1418.52417	440.49081	-841.31390	1218.89160	428.49228	-859.46204	1108.16785	373.02856	-890.17255	970.12964	287.65796	-854.54272	870.65881	345.03577	-892.99823	854.00208	284.65698	-898.01605	785.87421	469.84033	-442.32248	1417.71643	475.69931	-345.15714	1222.58813	439.45309	-316.50430	1109.50439	410.55380	-280.10611	997.24280	332.75534	-280.70947	862.68286	391.35098	-248.21024	863.42615	346.42575	-228.49933	794.61707	377.74799	-698.30658	973.66040	381.32092	-478.31589	980.06134	533.66669	-673.65839	1005.35223	530.11176	-507.47195	1011.06824	480.77225	-777.56995	666.74744	500.16183	-768.10510	503.56537	544.71613	-793.75079	252.93942	543.21472	-771.22882	75.15372	582.84497	-729.16864	56.39450	395.33606	-770.50458	39.18435	476.91147	-410.92697	650.18280	492.28253	-427.23788	525.28564	561.54022	-406.25778	269.44827	574.98700	-436.18469	78.57509	612.93805	-479.37418	51.24920	418.49112	-431.87262	35.90044	496.00073	-598.28198	1712.90271																								 
323	3.220	388.06348	-645.45782	1678.00977	404.53894	-515.08112	1662.73914	519.72650	-663.78821	1620.81433	533.97986	-535.27637	1611.77527	524.48383	-606.85986	1460.57947	554.47455	-596.98846	1133.47473	413.45789	-598.47498	1386.69629	367.94205	-603.56415	1213.77930	599.16101	-527.08228	1289.74292	458.92191	-763.28809	1418.50635	440.39304	-841.18787	1218.85449	428.40042	-859.33966	1108.13440	372.93866	-890.02338	970.07471	287.60608	-854.44763	870.62280	344.96561	-892.89258	854.00574	284.53641	-897.84497	785.81763	469.81174	-442.19650	1417.72656	475.75909	-345.02591	1222.60254	439.51666	-316.32828	1109.52808	410.64270	-279.88580	997.25629	332.95627	-280.62427	862.71808	391.50565	-248.00682	863.37744	346.59387	-228.23961	794.61731	377.69244	-698.15759	973.66650	381.29535	-478.16708	980.11249	533.63831	-673.53186	1005.35468	530.09119	-507.34570	1011.06744	480.76834	-777.54156	666.79211	500.12750	-768.04828	503.58087	544.66199	-793.74982	252.97250	543.37787	-771.34875	75.23805	582.83795	-729.19287	56.41967	395.21750	-770.43207	39.15886	476.90070	-410.81290	650.21790	492.25793	-427.14246	525.30347	561.50378	-406.27859	269.43378	574.98328	-436.20477	78.57307	612.92999	-479.41562	51.26794	418.48495	-431.85779	35.88666	495.90826	-598.20514	1712.89771																								 
324	3.230	387.91476	-645.36951	1678.00415	404.47189	-514.94531	1662.75854	519.71191	-663.79327	1620.77136	533.85291	-535.15961	1611.76001	524.41931	-606.75964	1460.57019	554.57214	-597.10297	1133.71631	413.40778	-598.27869	1386.61499	367.95053	-603.38684	1213.70544	599.06702	-526.95331	1289.71118	458.79562	-763.13727	1418.49341	440.31592	-841.06110	1218.82605	428.29166	-859.20325	1108.11572	372.81247	-889.77112	969.99792	287.54984	-854.31409	870.57318	344.89035	-892.79169	853.96265	284.43445	-897.63989	785.78662	469.81442	-442.08539	1417.70654	475.94391	-345.26447	1222.64404	439.54358	-316.15189	1109.54077	410.69708	-279.67209	997.26807	333.05200	-280.29810	862.71350	391.60849	-247.76854	863.36609	346.65524	-227.93710	794.63464	377.67139	-698.01941	973.65131	381.27216	-478.08737	980.11639	533.59418	-673.40021	1005.36108	530.06250	-507.22794	1011.09546	480.76035	-777.46289	666.80084	500.09018	-767.98358	503.59320	544.65710	-793.74982	252.99423	543.17908	-771.20044	75.17111	582.81964	-729.20801	56.39548	395.20078	-770.41949	39.18527	476.87469	-410.74060	650.18042	492.24438	-427.01974	525.30609	561.52277	-406.24899	269.41806	574.97998	-436.19754	78.57397	612.89984	-479.40933	51.26546	418.50821	-431.89987	35.86729	495.78635	-598.09662	1712.88757																								 
325	3.240	387.79181	-645.19513	1677.99329	404.43848	-514.80579	1662.74902	519.50958	-663.60095	1620.81177	533.80072	-535.08020	1611.74878	524.33594	-606.62671	1460.54333	554.31982	-596.82715	1133.56335	413.36273	-598.10455	1386.58228	367.95892	-603.21283	1213.65344	599.07349	-526.97919	1289.76135	458.68469	-763.02924	1418.49304	440.24225	-840.93103	1218.81763	428.20386	-859.04742	1108.12817	372.73102	-889.61029	970.00159	287.49796	-854.16162	870.55957	344.86084	-892.68817	853.95343	284.44620	-897.59729	785.78101	469.82465	-441.93607	1417.68677	475.86926	-344.97931	1222.54749	439.59399	-315.99054	1109.54553	410.78601	-279.46994	997.25708	333.14267	-279.96899	862.73334	391.73019	-247.53593	863.37616	346.82043	-227.62015	794.60510	377.62756	-697.88470	973.62665	381.27570	-477.91229	980.00513	533.54077	-673.25830	1005.37225	530.01196	-507.08261	1011.11151	480.79367	-777.36487	666.81647	500.07205	-767.91864	503.58133	544.65369	-793.68787	252.99431	543.36804	-771.32397	75.21421	582.80164	-729.21057	56.39478	395.19266	-770.45392	39.14656	476.90698	-410.63922	650.15961	492.23154	-426.95615	525.28564	561.51123	-406.18475	269.39612	574.99121	-436.18958	78.56498	612.92755	-479.40759	51.28179	418.50006	-431.90027	35.89521	495.67752	-597.97888	1712.87646																								 
